<?xml version="1.0" encoding="UTF-8"?>
<svg width="298px" height="293px" viewBox="0 0 298 293" version="1.1" xmlns="http://www.w3.org/2000/svg" xmlns:xlink="http://www.w3.org/1999/xlink">
    <!-- Generator: Sketch 53.2 (72643) - https://sketchapp.com -->
    <title>Grid</title>
    <desc>Created with Sketch.</desc>
    <g id="2019_0318" stroke="none" stroke-width="1" fill="none" fill-rule="evenodd">
        <g id="6.Kaggle_Homepage" transform="translate(-811.000000, -389.000000)">
            <g id="Grid" transform="translate(800.000000, 376.000000)">
                <g>
                    <g id="Group" fill-rule="nonzero">
                        <rect id="Rectangle" x="0" y="0" width="318.40796" height="318.319643"></rect>
                    </g>
                    <rect id="Rectangle" fill="#DEDFE0" fill-rule="nonzero" x="13.8987602" y="13.894905" width="3.79057095" height="3.78951956" rx="1.58740157"></rect>
                    <rect id="Rectangle" fill="#DEDFE0" fill-rule="nonzero" x="13.8987602" y="157.896648" width="3.79057095" height="3.78951956" rx="1.58740157"></rect>
                    <rect id="Rectangle" fill="#DEDFE0" fill-rule="nonzero" x="13.8987602" y="61.8954861" width="3.79057095" height="3.78951956" rx="1.58740157"></rect>
                    <rect id="Rectangle" fill="#DEDFE0" fill-rule="nonzero" x="13.8987602" y="205.897229" width="3.79057095" height="3.78951956" rx="1.58740157"></rect>
                    <rect id="Rectangle" fill="#DEDFE0" fill-rule="nonzero" x="13.8987602" y="109.896067" width="3.79057095" height="3.78951956" rx="1.58740157"></rect>
                    <rect id="Rectangle" fill="#DEDFE0" fill-rule="nonzero" x="13.8987602" y="253.89781" width="3.79057095" height="3.78951956" rx="1.58740157"></rect>
                    <rect id="Rectangle" fill="#DEDFE0" fill-rule="nonzero" x="37.9057095" y="13.894905" width="3.79057095" height="3.78951956" rx="1.58740157"></rect>
                    <rect id="Rectangle" fill="#DEDFE0" fill-rule="nonzero" x="37.9057095" y="157.896648" width="3.79057095" height="3.78951956" rx="1.58740157"></rect>
                    <rect id="Rectangle" fill="#DEDFE0" fill-rule="nonzero" x="37.9057095" y="61.8954861" width="3.79057095" height="3.78951956" rx="1.58740157"></rect>
                    <rect id="Rectangle" fill="#DEDFE0" fill-rule="nonzero" x="35.3786622" y="203.370883" width="8.84466556" height="8.8422123" rx="3.703937"></rect>
                    <rect id="Rectangle" fill="#DEDFE0" fill-rule="nonzero" x="37.9057095" y="109.896067" width="3.79057095" height="3.78951956" rx="1.58740157"></rect>
                    <rect id="Rectangle" fill="#DEDFE0" fill-rule="nonzero" x="37.9057095" y="253.89781" width="3.79057095" height="3.78951956" rx="1.58740157"></rect>
                    <rect id="Rectangle" fill="#DEDFE0" fill-rule="nonzero" x="61.9126589" y="13.894905" width="3.79057095" height="3.78951956" rx="1.58740157"></rect>
                    <rect id="Rectangle" fill="#DEDFE0" fill-rule="nonzero" x="61.9126589" y="157.896648" width="3.79057095" height="3.78951956" rx="1.58740157"></rect>
                    <rect id="Rectangle" fill="#DEDFE0" fill-rule="nonzero" x="61.9126589" y="61.8954861" width="3.79057095" height="3.78951956" rx="1.58740157"></rect>
                    <rect id="Rectangle" fill="#DEDFE0" fill-rule="nonzero" x="61.9126589" y="205.897229" width="3.79057095" height="3.78951956" rx="1.58740157"></rect>
                    <rect id="Rectangle" fill="#DEDFE0" fill-rule="nonzero" x="61.9126589" y="109.896067" width="3.79057095" height="3.78951956" rx="1.58740157"></rect>
                    <rect id="Rectangle" fill="#DEDFE0" fill-rule="nonzero" x="61.9126589" y="253.89781" width="3.79057095" height="3.78951956" rx="1.58740157"></rect>
                    <rect id="Rectangle" fill="#DEDFE0" fill-rule="nonzero" x="85.9196083" y="13.894905" width="3.79057095" height="3.78951956" rx="1.58740157"></rect>
                    <rect id="Rectangle" fill="#DEDFE0" fill-rule="nonzero" x="85.9196083" y="157.896648" width="3.79057095" height="3.78951956" rx="1.58740157"></rect>
                    <rect id="Rectangle" fill="#DEDFE0" fill-rule="nonzero" x="85.9196083" y="61.8954861" width="3.79057095" height="3.78951956" rx="1.58740157"></rect>
                    <rect id="Rectangle" fill="#DEDFE0" fill-rule="nonzero" x="85.9196083" y="205.897229" width="3.79057095" height="3.78951956" rx="1.58740157"></rect>
                    <rect id="Rectangle" fill="#DEDFE0" fill-rule="nonzero" x="85.9196083" y="109.896067" width="3.79057095" height="3.78951956" rx="1.58740157"></rect>
                    <rect id="Rectangle" fill="#DEDFE0" fill-rule="nonzero" x="83.392561" y="251.371464" width="8.84466556" height="8.8422123" rx="3.703937"></rect>
                    <rect id="Rectangle" fill="#DEDFE0" fill-rule="nonzero" x="13.8987602" y="37.8951956" width="3.79057095" height="3.78951956" rx="1.58740157"></rect>
                    <rect id="Rectangle" fill="#DEDFE0" fill-rule="nonzero" x="13.8987602" y="181.896939" width="3.79057095" height="3.78951956" rx="1.58740157"></rect>
                    <rect id="Rectangle" fill="#DEDFE0" fill-rule="nonzero" x="11.3717129" y="83.3694302" width="8.84466556" height="8.8422123" rx="3.703937"></rect>
                    <rect id="Rectangle" fill="#DEDFE0" fill-rule="nonzero" x="13.8987602" y="229.89752" width="3.79057095" height="3.78951956" rx="1.58740157"></rect>
                    <rect id="Rectangle" fill="#DEDFE0" fill-rule="nonzero" x="13.8987602" y="133.896358" width="3.79057095" height="3.78951956" rx="1.58740157"></rect>
                    <rect id="Rectangle" fill="#DEDFE0" fill-rule="nonzero" x="13.8987602" y="277.898101" width="3.79057095" height="3.78951956" rx="1.58740157"></rect>
                    <rect id="Rectangle" fill="#DEDFE0" fill-rule="nonzero" x="37.9057095" y="37.8951956" width="3.79057095" height="3.78951956" rx="1.58740157"></rect>
                    <rect id="Rectangle" fill="#DEDFE0" fill-rule="nonzero" x="37.9057095" y="181.896939" width="3.79057095" height="3.78951956" rx="1.58740157"></rect>
                    <rect id="Rectangle" fill="#DEDFE0" fill-rule="nonzero" x="37.9057095" y="85.8957766" width="3.79057095" height="3.78951956" rx="1.58740157"></rect>
                    <rect id="Rectangle" fill="#DEDFE0" fill-rule="nonzero" x="37.9057095" y="229.89752" width="3.79057095" height="3.78951956" rx="1.58740157"></rect>
                    <rect id="Rectangle" fill="#DEDFE0" fill-rule="nonzero" x="37.9057095" y="133.896358" width="3.79057095" height="3.78951956" rx="1.58740157"></rect>
                    <rect id="Rectangle" fill="#DEDFE0" fill-rule="nonzero" x="37.9057095" y="277.898101" width="3.79057095" height="3.78951956" rx="1.58740157"></rect>
                    <rect id="Rectangle" fill="#DEDFE0" fill-rule="nonzero" x="59.3856116" y="35.3688492" width="8.84466556" height="8.8422123" rx="3.703937"></rect>
                    <rect id="Rectangle" fill="#DEDFE0" fill-rule="nonzero" x="61.9126589" y="181.896939" width="3.79057095" height="3.78951956" rx="1.58740157"></rect>
                    <rect id="Rectangle" fill="#DEDFE0" fill-rule="nonzero" x="61.9126589" y="85.8957766" width="3.79057095" height="3.78951956" rx="1.58740157"></rect>
                    <rect id="Rectangle" fill="#DEDFE0" fill-rule="nonzero" x="61.9126589" y="229.89752" width="3.79057095" height="3.78951956" rx="1.58740157"></rect>
                    <rect id="Rectangle" fill="#DEDFE0" fill-rule="nonzero" x="61.9126589" y="133.896358" width="3.79057095" height="3.78951956" rx="1.58740157"></rect>
                    <rect id="Rectangle" fill="#DEDFE0" fill-rule="nonzero" x="61.9126589" y="277.898101" width="3.79057095" height="3.78951956" rx="1.58740157"></rect>
                    <rect id="Rectangle" fill="#DEDFE0" fill-rule="nonzero" x="85.9196083" y="37.8951956" width="3.79057095" height="3.78951956" rx="1.58740157"></rect>
                    <rect id="Rectangle" fill="#DEDFE0" fill-rule="nonzero" x="85.9196083" y="181.896939" width="3.79057095" height="3.78951956" rx="1.58740157"></rect>
                    <rect id="Rectangle" fill="#DEDFE0" fill-rule="nonzero" x="85.9196083" y="85.8957766" width="3.79057095" height="3.78951956" rx="1.58740157"></rect>
                    <rect id="Rectangle" fill="#DEDFE0" fill-rule="nonzero" x="85.9196083" y="229.89752" width="3.79057095" height="3.78951956" rx="1.58740157"></rect>
                    <rect id="Rectangle" fill="#DEDFE0" fill-rule="nonzero" x="85.9196083" y="133.896358" width="3.79057095" height="3.78951956" rx="1.58740157"></rect>
                    <rect id="Rectangle" fill="#DEDFE0" fill-rule="nonzero" x="85.9196083" y="277.898101" width="3.79057095" height="3.78951956" rx="1.58740157"></rect>
                    <rect id="Rectangle" fill="#DEDFE0" fill-rule="nonzero" x="109.926558" y="13.894905" width="3.79057095" height="3.78951956" rx="1.58740157"></rect>
                    <rect id="Rectangle" fill="#DEDFE0" fill-rule="nonzero" x="109.926558" y="157.896648" width="3.79057095" height="3.78951956" rx="1.58740157"></rect>
                    <rect id="Rectangle" fill="#DEDFE0" fill-rule="nonzero" x="107.39951" y="59.3691397" width="8.84466556" height="8.8422123" rx="4.42110615"></rect>
                    <rect id="Rectangle" fill="#DEDFE0" fill-rule="nonzero" x="109.926558" y="205.897229" width="3.79057095" height="3.78951956" rx="1.58740157"></rect>
                    <rect id="Rectangle" fill="#DEDFE0" fill-rule="nonzero" x="109.926558" y="109.896067" width="3.79057095" height="3.78951956" rx="1.58740157"></rect>
                    <rect id="Rectangle" fill="#DEDFE0" fill-rule="nonzero" x="109.926558" y="253.89781" width="3.79057095" height="3.78951956" rx="1.58740157"></rect>
                    <rect id="Rectangle" fill="#DEDFE0" fill-rule="nonzero" x="133.933507" y="13.894905" width="3.79057095" height="3.78951956" rx="1.58740157"></rect>
                    <rect id="Rectangle" fill="#DEDFE0" fill-rule="nonzero" x="131.40646" y="155.370302" width="8.84466556" height="8.8422123" rx="3.703937"></rect>
                    <rect id="Rectangle" fill="#DEDFE0" fill-rule="nonzero" x="133.933507" y="61.8954861" width="3.79057095" height="3.78951956" rx="1.58740157"></rect>
                    <rect id="Rectangle" fill="#DEDFE0" fill-rule="nonzero" x="133.933507" y="205.897229" width="3.79057095" height="3.78951956" rx="1.58740157"></rect>
                    <rect id="Rectangle" fill="#DEDFE0" fill-rule="nonzero" x="133.933507" y="109.896067" width="3.79057095" height="3.78951956" rx="1.58740157"></rect>
                    <rect id="Rectangle" fill="#DEDFE0" fill-rule="nonzero" x="133.933507" y="253.89781" width="3.79057095" height="3.78951956" rx="1.58740157"></rect>
                    <rect id="Rectangle" fill="#DEDFE0" fill-rule="nonzero" x="157.940456" y="13.894905" width="3.79057095" height="3.78951956" rx="1.58740157"></rect>
                    <rect id="Rectangle" fill="#DEDFE0" fill-rule="nonzero" x="157.940456" y="157.896648" width="3.79057095" height="3.78951956" rx="1.58740157"></rect>
                    <rect id="Rectangle" fill="#DEDFE0" fill-rule="nonzero" x="157.940456" y="61.8954861" width="3.79057095" height="3.78951956" rx="1.58740157"></rect>
                    <rect id="Rectangle" fill="#DEDFE0" fill-rule="nonzero" x="157.940456" y="205.897229" width="3.79057095" height="3.78951956" rx="1.58740157"></rect>
                    <rect id="Rectangle" fill="#DEDFE0" fill-rule="nonzero" x="157.940456" y="109.896067" width="3.79057095" height="3.78951956" rx="1.58740157"></rect>
                    <rect id="Rectangle" fill="#DEDFE0" fill-rule="nonzero" x="157.940456" y="253.89781" width="3.79057095" height="3.78951956" rx="1.58740157"></rect>
                    <rect id="Rectangle" fill="#DEDFE0" fill-rule="nonzero" x="181.947406" y="13.894905" width="3.79057095" height="3.78951956" rx="1.58740157"></rect>
                    <rect id="Rectangle" fill="#DEDFE0" fill-rule="nonzero" x="181.947406" y="157.896648" width="3.79057095" height="3.78951956" rx="1.58740157"></rect>
                    <rect id="Rectangle" fill="#DEDFE0" fill-rule="nonzero" x="181.947406" y="61.8954861" width="3.79057095" height="3.78951956" rx="1.58740157"></rect>
                    <rect id="Rectangle" fill="#DEDFE0" fill-rule="nonzero" x="181.947406" y="205.897229" width="3.79057095" height="3.78951956" rx="1.58740157"></rect>
                    <rect id="Rectangle" fill="#DEDFE0" fill-rule="nonzero" x="181.947406" y="109.896067" width="3.79057095" height="3.78951956" rx="1.58740157"></rect>
                    <rect id="Rectangle" fill="#DEDFE0" fill-rule="nonzero" x="181.947406" y="253.89781" width="3.79057095" height="3.78951956" rx="1.58740157"></rect>
                    <rect id="Rectangle" fill="#DEDFE0" fill-rule="nonzero" x="109.926558" y="37.8951956" width="3.79057095" height="3.78951956" rx="1.58740157"></rect>
                    <rect id="Rectangle" fill="#DEDFE0" fill-rule="nonzero" x="109.926558" y="181.896939" width="3.79057095" height="3.78951956" rx="1.58740157"></rect>
                    <rect id="Rectangle" fill="#DEDFE0" fill-rule="nonzero" x="109.926558" y="85.8957766" width="3.79057095" height="3.78951956" rx="1.58740157"></rect>
                    <rect id="Rectangle" fill="#DEDFE0" fill-rule="nonzero" x="109.926558" y="229.89752" width="3.79057095" height="3.78951956" rx="1.58740157"></rect>
                    <rect id="Rectangle" fill="#DEDFE0" fill-rule="nonzero" x="109.926558" y="133.896358" width="3.79057095" height="3.78951956" rx="1.58740157"></rect>
                    <rect id="Rectangle" fill="#DEDFE0" fill-rule="nonzero" x="109.926558" y="277.898101" width="3.79057095" height="3.78951956" rx="1.58740157"></rect>
                    <rect id="Rectangle" fill="#DEDFE0" fill-rule="nonzero" x="133.933507" y="37.8951956" width="3.79057095" height="3.78951956" rx="1.58740157"></rect>
                    <rect id="Rectangle" fill="#DEDFE0" fill-rule="nonzero" x="133.933507" y="181.896939" width="3.79057095" height="3.78951956" rx="1.58740157"></rect>
                    <rect id="Rectangle" fill="#DEDFE0" fill-rule="nonzero" x="133.933507" y="85.8957766" width="3.79057095" height="3.78951956" rx="1.58740157"></rect>
                    <rect id="Rectangle" fill="#DEDFE0" fill-rule="nonzero" x="133.933507" y="229.89752" width="3.79057095" height="3.78951956" rx="1.58740157"></rect>
                    <rect id="Rectangle" fill="#DEDFE0" fill-rule="nonzero" x="133.933507" y="133.896358" width="3.79057095" height="3.78951956" rx="1.58740157"></rect>
                    <rect id="Rectangle" fill="#DEDFE0" fill-rule="nonzero" x="133.933507" y="277.898101" width="3.79057095" height="3.78951956" rx="1.58740157"></rect>
                    <rect id="Rectangle" fill="#DEDFE0" fill-rule="nonzero" x="157.940456" y="37.8951956" width="3.79057095" height="3.78951956" rx="1.58740157"></rect>
                    <rect id="Rectangle" fill="#DEDFE0" fill-rule="nonzero" x="157.940456" y="181.896939" width="3.79057095" height="3.78951956" rx="1.58740157"></rect>
                    <rect id="Rectangle" fill="#DEDFE0" fill-rule="nonzero" x="157.940456" y="85.8957766" width="3.79057095" height="3.78951956" rx="1.58740157"></rect>
                    <rect id="Rectangle" fill="#DEDFE0" fill-rule="nonzero" x="157.940456" y="229.89752" width="3.79057095" height="3.78951956" rx="1.58740157"></rect>
                    <rect id="Rectangle" fill="#DEDFE0" fill-rule="nonzero" x="157.940456" y="133.896358" width="3.79057095" height="3.78951956" rx="1.58740157"></rect>
                    <rect id="Rectangle" fill="#DEDFE0" fill-rule="nonzero" x="157.940456" y="277.898101" width="3.79057095" height="3.78951956" rx="1.58740157"></rect>
                    <rect id="Rectangle" fill="#DEDFE0" fill-rule="nonzero" x="181.947406" y="37.8951956" width="3.79057095" height="3.78951956" rx="1.58740157"></rect>
                    <rect id="Rectangle" fill="#DEDFE0" fill-rule="nonzero" x="181.947406" y="181.896939" width="3.79057095" height="3.78951956" rx="1.58740157"></rect>
                    <rect id="Rectangle" fill="#DEDFE0" fill-rule="nonzero" x="179.420359" y="83.3694302" width="8.84466556" height="8.8422123" rx="3.703937"></rect>
                    <rect id="Rectangle" fill="#DEDFE0" fill-rule="nonzero" x="181.947406" y="229.89752" width="3.79057095" height="3.78951956" rx="1.58740157"></rect>
                    <rect id="Rectangle" fill="#DEDFE0" fill-rule="nonzero" x="181.947406" y="133.896358" width="3.79057095" height="3.78951956" rx="1.58740157"></rect>
                    <rect id="Rectangle" fill="#DEDFE0" fill-rule="nonzero" x="181.947406" y="277.898101" width="3.79057095" height="3.78951956" rx="1.58740157"></rect>
                    <rect id="Rectangle" fill="#DEDFE0" fill-rule="nonzero" x="205.954355" y="13.894905" width="3.79057095" height="3.78951956" rx="1.58740157"></rect>
                    <rect id="Rectangle" fill="#DEDFE0" fill-rule="nonzero" x="205.954355" y="157.896648" width="3.79057095" height="3.78951956" rx="1.58740157"></rect>
                    <rect id="Rectangle" fill="#DEDFE0" fill-rule="nonzero" x="205.954355" y="61.8954861" width="3.79057095" height="3.78951956" rx="1.58740157"></rect>
                    <rect id="Rectangle" fill="#DEDFE0" fill-rule="nonzero" x="205.954355" y="205.897229" width="3.79057095" height="3.78951956" rx="1.58740157"></rect>
                    <rect id="Rectangle" fill="#DEDFE0" fill-rule="nonzero" x="205.954355" y="109.896067" width="3.79057095" height="3.78951956" rx="1.58740157"></rect>
                    <rect id="Rectangle" fill="#DEDFE0" fill-rule="nonzero" x="203.427308" y="251.371464" width="8.84466556" height="8.8422123" rx="3.703937"></rect>
                    <rect id="Rectangle" fill="#DEDFE0" fill-rule="nonzero" x="205.954355" y="37.8951956" width="3.79057095" height="3.78951956" rx="1.58740157"></rect>
                    <rect id="Rectangle" fill="#DEDFE0" fill-rule="nonzero" x="205.954355" y="181.896939" width="3.79057095" height="3.78951956" rx="1.58740157"></rect>
                    <rect id="Rectangle" fill="#DEDFE0" fill-rule="nonzero" x="205.954355" y="85.8957766" width="3.79057095" height="3.78951956" rx="1.58740157"></rect>
                    <rect id="Rectangle" fill="#DEDFE0" fill-rule="nonzero" x="205.954355" y="229.89752" width="3.79057095" height="3.78951956" rx="1.58740157"></rect>
                    <rect id="Rectangle" fill="#DEDFE0" fill-rule="nonzero" x="205.954355" y="133.896358" width="3.79057095" height="3.78951956" rx="1.58740157"></rect>
                    <rect id="Rectangle" fill="#DEDFE0" fill-rule="nonzero" x="205.954355" y="277.898101" width="3.79057095" height="3.78951956" rx="1.58740157"></rect>
                    <rect id="Rectangle" fill="#DEDFE0" fill-rule="nonzero" x="229.961305" y="13.894905" width="3.79057095" height="3.78951956" rx="1.58740157"></rect>
                    <rect id="Rectangle" fill="#DEDFE0" fill-rule="nonzero" x="229.961305" y="157.896648" width="3.79057095" height="3.78951956" rx="1.58740157"></rect>
                    <rect id="Rectangle" fill="#DEDFE0" fill-rule="nonzero" x="229.961305" y="61.8954861" width="3.79057095" height="3.78951956" rx="1.58740157"></rect>
                    <rect id="Rectangle" fill="#DEDFE0" fill-rule="nonzero" x="229.961305" y="205.897229" width="3.79057095" height="3.78951956" rx="1.58740157"></rect>
                    <rect id="Rectangle" fill="#DEDFE0" fill-rule="nonzero" x="227.434257" y="107.369721" width="8.84466556" height="8.8422123" rx="3.703937"></rect>
                    <rect id="Rectangle" fill="#DEDFE0" fill-rule="nonzero" x="229.961305" y="253.89781" width="3.79057095" height="3.78951956" rx="1.58740157"></rect>
                    <rect id="Rectangle" fill="#DEDFE0" fill-rule="nonzero" x="253.968254" y="13.894905" width="3.79057095" height="3.78951956" rx="1.58740157"></rect>
                    <rect id="Rectangle" fill="#DEDFE0" fill-rule="nonzero" x="253.968254" y="157.896648" width="3.79057095" height="3.78951956" rx="1.58740157"></rect>
                    <rect id="Rectangle" fill="#DEDFE0" fill-rule="nonzero" x="253.968254" y="61.8954861" width="3.79057095" height="3.78951956" rx="1.58740157"></rect>
                    <rect id="Rectangle" fill="#DEDFE0" fill-rule="nonzero" x="251.441207" y="203.370883" width="8.84466556" height="8.8422123" rx="4.42110615"></rect>
                    <rect id="Rectangle" fill="#DEDFE0" fill-rule="nonzero" x="253.968254" y="109.896067" width="3.79057095" height="3.78951956" rx="1.58740157"></rect>
                    <rect id="Rectangle" fill="#DEDFE0" fill-rule="nonzero" x="253.968254" y="253.89781" width="3.79057095" height="3.78951956" rx="1.58740157"></rect>
                    <rect id="Rectangle" fill="#DEDFE0" fill-rule="nonzero" x="277.975203" y="13.894905" width="3.79057095" height="3.78951956" rx="1.58740157"></rect>
                    <rect id="Rectangle" fill="#DEDFE0" fill-rule="nonzero" x="277.975203" y="157.896648" width="3.79057095" height="3.78951956" rx="1.58740157"></rect>
                    <rect id="Rectangle" fill="#DEDFE0" fill-rule="nonzero" x="277.975203" y="61.8954861" width="3.79057095" height="3.78951956" rx="1.58740157"></rect>
                    <rect id="Rectangle" fill="#DEDFE0" fill-rule="nonzero" x="277.975203" y="205.897229" width="3.79057095" height="3.78951956" rx="1.58740157"></rect>
                    <rect id="Rectangle" fill="#DEDFE0" fill-rule="nonzero" x="277.975203" y="109.896067" width="3.79057095" height="3.78951956" rx="1.58740157"></rect>
                    <rect id="Rectangle" fill="#DEDFE0" fill-rule="nonzero" x="277.975203" y="253.89781" width="3.79057095" height="3.78951956" rx="1.58740157"></rect>
                    <rect id="Rectangle" fill="#DEDFE0" fill-rule="nonzero" x="301.982153" y="13.894905" width="3.79057095" height="3.78951956" rx="1.58740157"></rect>
                    <rect id="Rectangle" fill="#DEDFE0" fill-rule="nonzero" x="301.982153" y="157.896648" width="3.79057095" height="3.78951956" rx="1.58740157"></rect>
                    <rect id="Rectangle" fill="#DEDFE0" fill-rule="nonzero" x="301.982153" y="61.8954861" width="3.79057095" height="3.78951956" rx="1.58740157"></rect>
                    <rect id="Rectangle" fill="#DEDFE0" fill-rule="nonzero" x="301.982153" y="205.897229" width="3.79057095" height="3.78951956" rx="1.58740157"></rect>
                    <rect id="Rectangle" fill="#DEDFE0" fill-rule="nonzero" x="301.982153" y="109.896067" width="3.79057095" height="3.78951956" rx="1.58740157"></rect>
                    <rect id="Rectangle" fill="#DEDFE0" fill-rule="nonzero" x="301.982153" y="253.89781" width="3.79057095" height="3.78951956" rx="1.58740157"></rect>
                    <rect id="Rectangle" fill="#DEDFE0" fill-rule="nonzero" x="229.961305" y="37.8951956" width="3.79057095" height="3.78951956" rx="1.58740157"></rect>
                    <rect id="Rectangle" fill="#DEDFE0" fill-rule="nonzero" x="229.961305" y="181.896939" width="3.79057095" height="3.78951956" rx="1.58740157"></rect>
                    <rect id="Rectangle" fill="#DEDFE0" fill-rule="nonzero" x="229.961305" y="85.8957766" width="3.79057095" height="3.78951956" rx="1.58740157"></rect>
                    <rect id="Rectangle" fill="#DEDFE0" fill-rule="nonzero" x="229.961305" y="229.89752" width="3.79057095" height="3.78951956" rx="1.58740157"></rect>
                    <rect id="Rectangle" fill="#DEDFE0" fill-rule="nonzero" x="229.961305" y="133.896358" width="3.79057095" height="3.78951956" rx="1.58740157"></rect>
                    <rect id="Rectangle" fill="#DEDFE0" fill-rule="nonzero" x="229.961305" y="277.898101" width="3.79057095" height="3.78951956" rx="1.58740157"></rect>
                    <rect id="Rectangle" fill="#DEDFE0" fill-rule="nonzero" x="253.968254" y="37.8951956" width="3.79057095" height="3.78951956" rx="1.58740157"></rect>
                    <rect id="Rectangle" fill="#DEDFE0" fill-rule="nonzero" x="253.968254" y="181.896939" width="3.79057095" height="3.78951956" rx="1.58740157"></rect>
                    <rect id="Rectangle" fill="#DEDFE0" fill-rule="nonzero" x="253.968254" y="85.8957766" width="3.79057095" height="3.78951956" rx="1.58740157"></rect>
                    <rect id="Rectangle" fill="#DEDFE0" fill-rule="nonzero" x="253.968254" y="229.89752" width="3.79057095" height="3.78951956" rx="1.58740157"></rect>
                    <rect id="Rectangle" fill="#DEDFE0" fill-rule="nonzero" x="253.968254" y="133.896358" width="3.79057095" height="3.78951956" rx="1.58740157"></rect>
                    <rect id="Rectangle" fill="#DEDFE0" fill-rule="nonzero" x="253.968254" y="277.898101" width="3.79057095" height="3.78951956" rx="1.58740157"></rect>
                    <rect id="Rectangle" fill="#DEDFE0" fill-rule="nonzero" x="275.448156" y="35.3688492" width="8.84466556" height="8.8422123" rx="3.703937"></rect>
                    <rect id="Rectangle" fill="#DEDFE0" fill-rule="nonzero" x="277.975203" y="181.896939" width="3.79057095" height="3.78951956" rx="1.58740157"></rect>
                    <rect id="Rectangle" fill="#DEDFE0" fill-rule="nonzero" x="277.975203" y="85.8957766" width="3.79057095" height="3.78951956" rx="1.58740157"></rect>
                    <rect id="Rectangle" fill="#DEDFE0" fill-rule="nonzero" x="277.975203" y="229.89752" width="3.79057095" height="3.78951956" rx="1.58740157"></rect>
                    <rect id="Rectangle" fill="#DEDFE0" fill-rule="nonzero" x="277.975203" y="133.896358" width="3.79057095" height="3.78951956" rx="1.58740157"></rect>
                    <rect id="Rectangle" fill="#DEDFE0" fill-rule="nonzero" x="277.975203" y="277.898101" width="3.79057095" height="3.78951956" rx="1.58740157"></rect>
                    <rect id="Rectangle" fill="#DEDFE0" fill-rule="nonzero" x="301.982153" y="37.8951956" width="3.79057095" height="3.78951956" rx="1.58740157"></rect>
                    <rect id="Rectangle" fill="#DEDFE0" fill-rule="nonzero" x="301.982153" y="181.896939" width="3.79057095" height="3.78951956" rx="1.58740157"></rect>
                    <rect id="Rectangle" fill="#DEDFE0" fill-rule="nonzero" x="301.982153" y="85.8957766" width="3.79057095" height="3.78951956" rx="1.58740157"></rect>
                    <rect id="Rectangle" fill="#DEDFE0" fill-rule="nonzero" x="301.982153" y="229.89752" width="3.79057095" height="3.78951956" rx="1.58740157"></rect>
                    <rect id="Rectangle" fill="#DEDFE0" fill-rule="nonzero" x="301.982153" y="133.896358" width="3.79057095" height="3.78951956" rx="1.58740157"></rect>
                    <rect id="Rectangle" fill="#DEDFE0" fill-rule="nonzero" x="299.455105" y="275.371754" width="8.84466556" height="8.8422123" rx="3.703937"></rect>
                    <rect id="Rectangle" fill="#DEDFE0" fill-rule="nonzero" x="13.8987602" y="301.898391" width="3.79057095" height="3.78951956" rx="1.58740157"></rect>
                    <rect id="Rectangle" fill="#DEDFE0" fill-rule="nonzero" x="37.9057095" y="301.898391" width="3.79057095" height="3.78951956" rx="1.58740157"></rect>
                    <rect id="Rectangle" fill="#DEDFE0" fill-rule="nonzero" x="61.9126589" y="301.898391" width="3.79057095" height="3.78951956" rx="1.58740157"></rect>
                    <rect id="Rectangle" fill="#DEDFE0" fill-rule="nonzero" x="85.9196083" y="301.898391" width="3.79057095" height="3.78951956" rx="1.58740157"></rect>
                    <rect id="Rectangle" fill="#DEDFE0" fill-rule="nonzero" x="109.926558" y="301.898391" width="3.79057095" height="3.78951956" rx="1.58740157"></rect>
                    <rect id="Rectangle" fill="#DEDFE0" fill-rule="nonzero" x="133.933507" y="301.898391" width="3.79057095" height="3.78951956" rx="1.58740157"></rect>
                    <rect id="Rectangle" fill="#DEDFE0" fill-rule="nonzero" x="157.940456" y="301.898391" width="3.79057095" height="3.78951956" rx="1.58740157"></rect>
                    <rect id="Rectangle" fill="#DEDFE0" fill-rule="nonzero" x="181.947406" y="301.898391" width="3.79057095" height="3.78951956" rx="1.58740157"></rect>
                    <rect id="Rectangle" fill="#DEDFE0" fill-rule="nonzero" x="205.954355" y="301.898391" width="3.79057095" height="3.78951956" rx="1.58740157"></rect>
                    <rect id="Rectangle" fill="#DEDFE0" fill-rule="nonzero" x="229.961305" y="301.898391" width="3.79057095" height="3.78951956" rx="1.58740157"></rect>
                    <rect id="Rectangle" fill="#DEDFE0" fill-rule="nonzero" x="253.968254" y="301.898391" width="3.79057095" height="3.78951956" rx="1.58740157"></rect>
                    <rect id="Rectangle" fill="#DEDFE0" fill-rule="nonzero" x="277.975203" y="301.898391" width="3.79057095" height="3.78951956" rx="1.58740157"></rect>
                    <rect id="Rectangle" fill="#DEDFE0" fill-rule="nonzero" x="301.982153" y="301.898391" width="3.79057095" height="3.78951956" rx="1.58740157"></rect>
                </g>
            </g>
        </g>
    </g>
</svg>